<svg
  role="img"
  viewBox="0 0 24 24"
  width="30"
  height="30"
  xmlns="http://www.w3.org/2000/svg"
>
  <path
    fill="#FFFFFF"
    d="M7.03.084c-1.277.06-2.149.264-2.911.563-.789.308-1.457.72-2.123 1.388-.665.668-1.075 1.337-1.38 2.127-.296.764-.496 1.637-.552 2.914-.056 1.278-.069 1.688-.063 4.947.006 3.258.021 3.667.082 4.947.061 1.277.264 2.148.564 2.911.308.789.72 1.457 1.388 2.123.668.665 1.337 1.074 2.128 1.38.763.295 1.636.496 2.913.552 1.277.056 1.688.069 4.946.063 3.258-.006 3.668-.021 4.948-.082 1.28-.061 2.147-.265 2.91-.563.789-.309 1.458-.72 2.123-1.388.665-.668 1.075-1.338 1.38-2.128.296-.763.497-1.636.552-2.912.056-1.281.069-1.69.063-4.948-.006-3.258-.021-3.667-.082-4.947-.061-1.28-.264-2.149-.563-2.912-.308-.789-.72-1.457-1.388-2.123C21.298 1.33 20.628.921 19.838.616c-.764-.296-1.636-.496-2.914-.552C15.647.009 15.236-.005 11.977.001 8.718.008 8.31.022 7.03.084m.14 21.693c-1.17-.051-1.805-.245-2.229-.408-.561-.216-.96-.477-1.382-.895-.422-.418-.681-.819-.9-1.378-.164-.423-.362-1.058-.417-2.228-.06-1.265-.072-1.644-.079-4.848-.007-3.204.005-3.583.061-4.848.05-1.169.246-1.805.408-2.228.216-.561.476-.96.895-1.382.419-.422.818-.681 1.378-.9.423-.165 1.057-.361 2.227-.417 1.266-.06 1.645-.072 4.848-.079 3.203-.007 3.583.005 4.849.061 1.169.051 1.805.245 2.228.408.561.216.96.475 1.382.895.422.419.682.818.901 1.379.165.422.362 1.056.417 2.226.06 1.265.074 1.645.08 4.848.006 3.203-.005 3.583-.061 4.848-.051 1.17-.245 1.805-.408 2.229-.216.56-.476.96-.895 1.381-.419.421-.818.681-1.378.9-.423.165-1.058.362-2.226.417-1.266.06-1.645.072-4.849.079-3.204.007-3.583-.006-4.848-.061M16.953 5.586A1.44 1.44 0 1 0 18.39 4.144 1.44 1.44 0 0 0 16.953 5.586M5.838 12.012c.007 3.403 2.771 6.156 6.173 6.149 3.403-.007 6.157-2.77 6.151-6.173-.007-3.403-2.771-6.157-6.174-6.15-3.403.007-6.156 2.771-6.15 6.174M8 12a4 4 0 1 1 4.008 3.992A4 4 0 0 1 8 12"
  />
</svg>
